# xmcd
#
# Track frame offsets:
#	180
#	21134
#	40698
#	62669
#	74517
#	98173
#	112481
#	141835
#	156812
#	174748
#	194714
#	216102
#	230303
#	245394
#
# Disc length: 3604 seconds
#
# Revision: 0
# Processed by: cddbd v1.4PL0 Copyright (c) Steve Scherf et al.
# Submitted via: EasyCDDAExtractor 4.6.9.1
#
DISCID=ce0e120e
DTITLE=Kenny Traylor - Born With the Blues
DYEAR=1995
DGENRE=Blues
TTITLE0=Takin' These Blues Downtown
TTITLE1=Greyground
TTITLE2=High Heel Sneakers
TTITLE3=No Good Women
TTITLE4=Lonesome Whistle Blues
TTITLE5=Blues In My Shoes
TTITLE6=Unpredictable Too
TTITLE7=Bring Your Fine Self Home
TTITLE8=Gypsy Women
TTITLE9=Blues Times Two
TTITLE10=Anna Lee
TTITLE11=Born With The Blues
TTITLE12=Red Haired Fort Worth Girl
TTITLE13=Let Go Of Me
EXTD=
EXTT0=
EXTT1=
EXTT2=
EXTT3=
EXTT4=
EXTT5=
EXTT6=
EXTT7=
EXTT8=
EXTT9=
EXTT10=
EXTT11=
EXTT12=
EXTT13=
PLAYORDER=
